<?xml version="1.0" encoding="utf-8"?>
<!-- Generator: Adobe Illustrator 16.0.0, SVG Export Plug-In . SVG Version: 6.00 Build 0)  -->
<!DOCTYPE svg PUBLIC "-//W3C//DTD SVG 1.1//EN" "http://www.w3.org/Graphics/SVG/1.1/DTD/svg11.dtd">
<svg version="1.1" id="Layer_1" xmlns="http://www.w3.org/2000/svg" xmlns:xlink="http://www.w3.org/1999/xlink" x="0px" y="0px"
	 width="1451.129px" height="471.58px" viewBox="0 0 1451.129 471.58" enable-background="new 0 0 1451.129 471.58"
	 xml:space="preserve">
<g>
	<defs>
		<rect id="SVGID_1_" width="1451.129" height="471.58"/>
	</defs>
	<clipPath id="SVGID_2_">
		<use xlink:href="#SVGID_1_"  overflow="visible"/>
	</clipPath>
	<g id="ga-insurance-logo" clip-path="url(#SVGID_2_)">
		<rect fill="#FFFFFF" width="1451.129" height="471.58"/>
		<g id="Group_5" transform="translate(-36.04 -86.259)">
			<g id="Group_4">
				<g id="Group_1">
					<path id="Path_1" fill="#EB6215" d="M273.292,251.463c-0.294,39.312-32.402,70.942-71.714,70.648
						c-39.312-0.294-70.942-32.402-70.648-71.714c0.001-0.155,0.002-0.311,0.005-0.466c0.451-41.879,32.682-70.829,71.967-70.406
						C242.203,179.957,273.715,212.162,273.292,251.463"/>
					<path id="Path_2" fill="#898B8D" d="M252.318,166.266l-48.522-0.551c0,0-22.239-0.73-42.626,11.317
						c0,0-37.942,19.893-42.029,65.85c0,0-7.687,70.275,65.353,90.358c0,0,57.3,10.769,84.972-35.882c0,0,13.8-16.775,13.4-56.25
						c0,0,6.415-65.19,83.8-60.878l-2.229,236.969c0,0-49.108,1.028-66.546-27.791c0,0-1.723-5.455-7.589-0.65
						c0,0-60.243,47.383-145.515,16.316c0,0-128.77-38.844-106.06-191.851c0,0,12.389-72.181,82.346-109.364
						c0,0,42.1-20.109,81.033-17.343l102.688,1.105c0-0.395-0.575,73.346-52.475,78.641"/>
					<path id="Path_3" fill="#EB6215" d="M470.656,324.267l121.46,1.308c-1.938,28.459-12.432,51.756-31.482,69.895
						c-19.066,18.084-42.327,27-69.783,26.747c-28.182-0.304-51.66-10.411-70.437-30.325
						c-18.812-19.885-28.068-44.422-27.766-73.612c0.084-13.363,2.875-26.57,8.206-38.824c5.46-12.41,13.33-23.611,23.154-32.955
						c9.224-9.107,20.202-16.244,32.27-20.976c12.498-4.671,25.774-6.909,39.112-6.594c18.976,0.204,35.933,4.981,50.871,14.33
						c14.991,9.31,26.943,22.509,35.858,39.6l-23.643-0.255c-9.044-11.822-18.834-20.589-29.263-26.3
						c-10.782-5.803-22.845-8.817-35.09-8.769c-22.431-0.241-41.493,7.589-57.189,23.488
						c-15.679,15.902-23.644,35.119-23.894,57.648c-0.258,24.01,7.26,44.1,22.552,60.27c15.289,16.196,34.291,24.416,57.006,24.658
						c17.539,0.309,34.621-5.594,48.228-16.664c14.315-11.291,23.718-26.035,28.208-44.236l-98.566-1.061L470.656,324.267z"/>
					<path id="Path_4" fill="#EB6215" d="M599.658,419.414l-20.237-0.217l77.916-194.567l23.091,0.249l73.451,196.199l-20.531-0.221
						l-22.661-61.623l-87.012-0.937L599.658,419.414z M704.137,341.639l-36-98.5L630.6,340.847L704.137,341.639z"/>
					
						<rect id="Rectangle_1" x="718.139" y="349.806" transform="matrix(-0.0108 0.9999 -0.9999 -0.0108 1147.9404 -423.1268)" fill="#898B8D" width="130.259" height="12.909"/>
					<path id="Path_5" fill="#898B8D" d="M803.291,323.199l12.314,0.134l-0.121,11.266c3.691-4.296,8.34-7.665,13.572-9.836
						c5.58-2.194,11.545-3.237,17.537-3.065c6.65-0.061,13.227,1.392,19.23,4.251c5.418,2.578,10.01,6.618,13.258,11.664
						c2.309,3.838,3.906,8.061,4.719,12.467c0.971,4.742,1.361,11.762,1.264,21.021l-0.555,51.38l-12.529-0.134l0.594-55.035
						c0.125-11.621-1.994-20.077-6.359-25.366c-4.4-5.281-11.475-7.982-21.225-8.101c-5.232-0.159-10.422,0.971-15.115,3.289
						c-4.303,2.197-7.881,5.588-10.305,9.767c-1.641,2.822-2.775,5.91-3.357,9.123c-0.658,3.393-1.061,9.416-1.152,17.908
						l-0.514,47.801l-12.314-0.133L803.291,323.199z"/>
					<path id="Path_6" fill="#898B8D" d="M889.552,391.586l13.082,0.141v0.361c-0.066,6.141,1.639,11.229,5.068,15.3
						c3.15,3.921,7.914,6.194,12.943,6.179c4.543,0.186,8.975-1.432,12.332-4.5c3.262-2.988,5.09-7.229,5.02-11.652
						c0.051-4.731-1.205-8.506-3.773-11.422c-2.547-2.858-7.182-5.627-13.881-8.157c-10.867-4.015-17.939-8.067-21.221-12.161
						c-3.266-4.084-4.861-9.54-4.787-16.367c-0.049-7.406,3.059-14.483,8.545-19.46c5.434-5.266,12.768-8.106,20.33-7.873
						c8.385,0.09,15,2.558,19.912,7.421c4.912,4.812,7.479,11.523,7.725,20.075l-13.59-0.146c-0.254-4.645-1.67-8.287-4.275-10.857
						c-2.623-2.594-6.225-3.919-10.74-3.967c-3.84-0.154-7.57,1.3-10.295,4.011c-2.746,2.722-4.262,6.444-4.201,10.31
						c-0.131,2.559,0.416,5.107,1.584,7.387c1.369,2.258,3.279,4.138,5.559,5.469c3.242,1.922,6.727,3.406,10.357,4.414
						c4.535,1.431,7.576,2.462,9.113,3.145c6.141,2.682,10.625,6.228,13.455,10.639c2.828,4.351,4.213,9.937,4.139,16.681
						c-0.09,8.459-3.1,15.47-9.084,20.949c-5.986,5.479-13.471,8.161-22.533,8.063c-9.258-0.099-16.652-3.21-22.186-9.334
						c-5.533-6.162-8.398-14.378-8.594-24.647"/>
					<path id="Path_7" fill="#898B8D" d="M958.542,324.869l12.5,0.136l-0.562,52.254c-0.145,13.415,1.92,22.917,6.223,28.569
						c4.283,5.6,11.381,8.463,21.355,8.57c5.176,0.172,10.311-0.953,14.939-3.273c4.326-2.27,7.947-5.678,10.471-9.858
						c1.604-2.817,2.723-5.884,3.312-9.071c0.709-3.473,1.084-9.541,1.178-18.174l0.521-48.4l12.709,0.137l-1.059,98.4
						l-12.711-0.137l0.115-10.658c-3.447,4.332-7.871,7.783-12.91,10.074c-5.438,2.162-11.266,3.17-17.113,2.963
						c-14.193-0.152-24.383-4.097-30.568-11.832c-6.172-7.76-9.156-20.545-8.953-38.355L958.542,324.869z"/>
					<path id="Path_8" fill="#898B8D" d="M1063.8,424.412l-12.891-0.139l1.059-98.4l12.021,0.13l-0.123,11.446
						c2.643-3.902,6.123-7.167,10.186-9.556c3.949-2.062,8.346-3.12,12.801-3.077l-0.041,13.766
						c-7.9,0.619-13.576,2.949-17.055,6.91c-3.449,4.008-5.223,10.535-5.32,19.586L1063.8,424.412z"/>
					<path id="Path_9" fill="#898B8D" d="M1171.3,410.021c-4.137,5.737-9.707,10.288-16.152,13.2
						c-6.799,3.191-14.24,4.777-21.75,4.639c-14.463-0.156-26.41-5.22-35.93-15.201c-9.529-10.01-14.17-22.226-14.014-36.768
						c0.16-14.733,5.195-27.003,15.111-36.809c9.922-9.785,22.266-14.606,37.031-14.463c7.207-0.001,14.316,1.662,20.773,4.859
						c6.27,3.127,11.652,7.781,15.65,13.534l0.172-15.845l12.336,0.133l-1.059,98.4l-12.336-0.133L1171.3,410.021z
						 M1171.669,375.787c0.186-10.23-3.748-20.107-10.918-27.411c-7.381-7.862-15.938-11.848-25.666-11.956
						c-10.256-0.246-20.129,3.896-27.141,11.387c-7.492,7.685-11.312,17.285-11.459,28.801
						c-0.117,10.933,3.482,20.221,10.801,27.862c6.855,7.396,16.492,11.589,26.578,11.565c10.014,0.106,18.785-3.752,26.332-11.64
						c7.441-7.653,11.562-17.935,11.469-28.608"/>
					<path id="Path_10" fill="#898B8D" d="M1195.587,327.422l12.338,0.132l-0.123,11.267c3.701-4.301,8.363-7.67,13.607-9.836
						c11.928-4.469,25.137-4.042,36.752,1.186c5.41,2.586,9.996,6.624,13.244,11.664c2.314,3.839,3.922,8.062,4.744,12.469
						c0.92,4.742,1.34,11.762,1.24,21.021l-0.553,51.379l-12.553-0.135l0.592-55.033c0.127-11.623-1.992-20.078-6.357-25.367
						c-4.371-5.281-11.471-8-21.213-8.1c-5.225-0.162-10.408,0.967-15.094,3.289c-4.309,2.191-7.891,5.582-10.316,9.762
						c-1.643,2.825-2.789,5.91-3.387,9.123c-0.656,3.394-1.037,9.418-1.129,17.91l-0.516,47.799l-12.336-0.133L1195.587,327.422z"/>
					<path id="Path_11" fill="#898B8D" d="M1367.283,359.5c-3.82-7.17-8.465-12.5-14-15.958c-5.568-3.46-12.193-5.253-19.867-5.335
						c-10.143-0.108-18.787,3.643-25.932,11.254c-7.143,7.6-10.785,17.062-10.926,28.39c-0.121,11.323,3.338,20.821,10.381,28.495
						c6.611,7.508,16.168,11.762,26.172,11.654c7.139,0.221,14.186-1.66,20.264-5.41c5.965-3.768,10.666-9.231,13.506-15.689
						l13.955,0.149c-3.926,10.667-10.049,18.869-18.256,24.685c-8.254,5.742-17.889,8.588-29,8.469
						c-14.254-0.153-26.225-5.346-35.908-15.578c-9.537-9.812-14.701-23.064-14.316-36.743c0.156-14.571,5.24-26.866,15.25-36.888
						c10.066-10.008,22.178-14.885,36.477-14.731c10.076-0.068,19.916,3.05,28.113,8.908c8.086,5.839,14.1,13.997,18.041,24.477
						L1367.283,359.5z"/>
					<path id="Path_12" fill="#898B8D" d="M1487.152,383.888l-88.969-0.958c0.701,10.7,4.479,19.335,11.383,26.025
						c6.893,6.66,15.586,10.041,26,10.154c7.068,0.168,14.031-1.739,20.027-5.486c6.027-3.838,10.83-9.317,13.846-15.793
						l14.342,0.154c-4.635,10.834-11.119,19.145-19.393,24.858c-8.387,5.78-18.395,8.743-28.576,8.461
						c-13.732,0.101-26.869-5.608-36.166-15.717c-9.607-9.864-14.812-23.198-14.428-36.964c0.162-14.993,5.141-27.326,14.938-37
						c9.787-9.7,22.256-14.418,37.334-14.256c14.807,0.16,26.838,5.371,36.094,15.633c9.232,10.301,13.76,23.615,13.578,39.943
						L1487.152,383.888z M1473.292,372.64c-2.262-10.933-6.559-19.192-12.889-24.776c-6.336-5.601-14.611-8.447-24.932-8.559
						c-9.533-0.103-17.641,2.773-24.324,8.626c-6.707,5.855-10.854,13.824-12.439,23.907L1473.292,372.64z"/>
				</g>
				<g id="ke">
					<g id="Group_2_3_">
						<path id="Path_13_3_" fill="#171716" d="M1239.23,508.64l-0.223,20.665l-6.486-0.07l0.721-67.008l6.488,0.07l-0.4,37.231
							l31.422-36.899l7.82,0.084l-27.408,32.11l26.227,34.893l-8.1-0.087l-22.414-29.929L1239.23,508.64z"/>
						<path id="Path_14_3_" fill="#171716" d="M1332.126,507.063l-45.699-0.492c0.139,5.063,2.232,9.876,5.842,13.43
							c3.588,3.451,8.402,5.335,13.381,5.236c3.637,0.088,7.221-0.901,10.299-2.844c3.1-1.987,5.57-4.814,7.125-8.151l7.367,0.078
							c-2.039,5.127-5.494,9.566-9.963,12.801c-4.318,2.97-9.469,4.489-14.707,4.338c-7.061,0.053-13.814-2.877-18.6-8.068
							c-4.947-5.067-7.631-11.921-7.439-19c0.084-7.7,2.645-14.038,7.682-19.016s11.438-7.425,19.199-7.343
							c7.611,0.082,13.791,2.768,18.537,8.058s7.072,12.126,6.979,20.507L1332.126,507.063z M1325.009,501.329
							c-1.166-5.644-3.375-9.905-6.627-12.786c-3.25-2.881-7.514-4.351-12.793-4.41c-4.59-0.167-9.07,1.427-12.521,4.456
							c-3.543,3.209-5.814,7.583-6.4,12.327L1325.009,501.329z"/>
						<path id="Path_15_3_" fill="#171716" d="M1339.882,479.761l6.299,0.067l-0.061,5.756c1.9-2.199,4.289-3.923,6.977-5.033
							c6.141-2.278,12.93-2.057,18.908,0.617c2.791,1.326,5.152,3.409,6.816,6.012c1.207,1.962,2.033,4.133,2.439,6.4
							c0.559,3.571,0.775,7.188,0.648,10.8l-0.285,26.462l-6.4-0.068l0.301-28.35c0.066-5.98-1.029-10.334-3.289-13.06
							c-2.26-2.725-5.904-4.115-10.934-4.17c-2.691-0.088-5.361,0.492-7.771,1.689c-2.217,1.139-4.062,2.883-5.324,5.03
							c-0.844,1.455-1.428,3.045-1.73,4.699c-0.432,3.055-0.627,6.138-0.58,9.223l-0.266,24.622l-6.299-0.068L1339.882,479.761z"/>
						<path id="Path_16_3_" fill="#171716" d="M1385.759,480.254l7.455,0.081l15.199,41.268l16.826-40.924l7.549,0.082
							l-28.057,66.714l-6.951-0.075l6.941-16.404L1385.759,480.254z"/>
						<path id="Path_17_3_" fill="#171716" d="M1478.218,523.87c-2.121,2.946-4.98,5.282-8.293,6.771
							c-3.5,1.624-7.324,2.431-11.182,2.359c-6.982,0.109-13.686-2.729-18.465-7.817c-9.824-10.772-9.576-27.328,0.568-37.8
							c5.033-5.013,11.924-7.706,19.021-7.434c3.707-0.002,7.365,0.85,10.691,2.488c3.215,1.597,5.975,3.977,8.029,6.919l0.086-8.1
							l6.354,0.069l-0.545,50.624l-6.354-0.068L1478.218,523.87z M1478.408,506.248c0.098-5.268-1.92-10.354-5.6-14.124
							c-3.795-4.046-8.193-6.097-13.193-6.15c-5.27-0.126-10.342,2.006-13.939,5.858c-3.859,3.959-5.98,9.296-5.889,14.826
							c-0.18,5.34,1.826,10.521,5.555,14.349c3.512,3.814,8.463,5.98,13.648,5.971c5.166,0.053,10.1-2.136,13.527-6
							C1476.335,517.031,1478.453,511.74,1478.408,506.248L1478.408,506.248z"/>
					</g>
				</g>
			</g>
		</g>
	</g>
</g>
</svg>
